<?xml version="1.0" standalone="no"?>
<!DOCTYPE svg PUBLIC "-//W3C//DTD SVG 20010904//EN"
 "http://www.w3.org/TR/2001/REC-SVG-20010904/DTD/svg10.dtd">
<svg version="1.0" xmlns="http://www.w3.org/2000/svg"
 width="1024.000000pt" height="1024.000000pt" viewBox="0 0 1024.000000 1024.000000"
 preserveAspectRatio="xMidYMid meet">
<metadata>
Created by potrace 1.14, written by Peter Selinger 2001-2017
</metadata>
<g transform="translate(0.000000,1024.000000) scale(0.100000,-0.100000)"
fill="#000000" stroke="none">
<path d="M0 5120 l0 -5120 5120 0 5120 0 0 5120 0 5120 -5120 0 -5120 0 0
-5120z m5428 2263 l-3 -1808 -310 0 -310 0 -3 1808 -2 1807 315 0 315 0 -2
-1807z m-868 1417 l0 -30 -562 0 c-310 0 -1248 -3 -2086 -7 l-1522 -6 0 31 0
32 1398 3 c768 1 1706 3 2085 5 l687 2 0 -30z m5290 0 l0 -30 -2090 0 -2090 0
0 25 0 25 703 3 c386 1 1326 3 2090 5 l1387 2 0 -30z m-192 -297 l-3 -28
-1992 -3 -1993 -2 0 30 0 30 1996 0 1995 0 -3 -27z m-5098 -13 l0 -30 -1987 2
-1988 3 -3 28 -3 27 1990 0 1991 0 0 -30z m4287 -280 l593 0 0 -32 0 -31 -512
6 c-281 4 -1129 7 -1885 7 l-1373 0 0 32 0 31 1292 -6 c710 -4 1558 -7 1885
-7z m-4287 -30 l0 -30 -1428 0 c-786 0 -1632 -3 -1880 -7 l-452 -6 0 31 0 32
643 3 c353 1 1199 3 1880 5 l1237 2 0 -30z m4103 -277 l577 -6 0 -24 0 -23
-1785 0 -1785 0 0 30 0 30 1208 0 c664 0 1467 -3 1785 -7z m-4103 -38 l0 -25
-1780 0 -1780 0 0 25 0 25 1780 0 1780 0 0 -25z m4470 -295 l0 -30 -1680 0
-1680 0 0 30 0 30 1680 0 1680 0 0 -30z m-4470 -10 l0 -30 -1675 0 -1675 0 0
24 c0 22 5 25 48 29 26 2 779 4 1675 5 l1627 2 0 -30z m4270 -290 l0 -30
-1437 0 c-791 0 -1502 -3 -1580 -7 l-143 -6 0 31 0 32 668 3 c367 1 1078 3
1580 5 l912 2 0 -30z m-4270 -10 l0 -30 -1575 0 -1575 0 0 30 0 30 1575 0
1575 0 0 -30z m0 -310 l0 -30 -508 0 c-280 0 -941 -3 -1470 -7 l-962 -6 0 31
0 32 913 3 c501 1 1163 3 1470 5 l557 2 0 -30z m4060 0 l0 -30 -1475 0 -1475
0 0 30 0 30 1475 0 1475 0 0 -30z m-4060 -970 l0 -590 555 0 555 0 0 590 0
590 430 0 430 0 0 -1045 0 -1045 205 0 205 0 0 -1715 0 -1715 -475 0 -475 0
-2 976 -3 975 -434 -665 c-239 -367 -439 -665 -445 -663 -5 2 -203 299 -440
661 l-431 657 -3 -970 -2 -971 -470 0 -470 0 2 1713 3 1712 203 3 202 2 0
1045 0 1045 430 0 430 0 0 -590z"/>
<path d="M4560 4350 l0 -290 277 -450 c215 -348 280 -447 289 -437 7 6 132
207 278 445 l266 433 0 295 0 294 -555 0 -555 0 0 -290z"/>
</g>
</svg>
